# xmcd
#
# Track frame offsets:
# 150
# 14847
# 26772
# 45436
# 59534
# 77231
# 95209
# 109680
# 125398
# 142095
# 158335
# 167723
#
# Disc length: 2482 seconds
#
#
# Revision: 0
# Processed by: cddbd v1.5.2PL0 Copyright (c) Steve Scherf et al.
# Submitted via: FreeRIP 2.951 
#
DISCID=a109b00c
DTITLE=Phil and Pam Morgan - Gotta Keep Walkin'
DYEAR=2004
DGENRE=Gospel
TTITLE0=Don't Listen To The Loser
TTITLE1=Yes I Do
TTITLE2=My Greatest Treasure
TTITLE3=Miracles Still Happen
TTITLE4=In His Name
TTITLE5=God Gave Grace
TTITLE6=Walking The Walk
TTITLE7=Have You Prayed
TTITLE8=Waiting To See The Sun
TTITLE9=First Love
TTITLE10=My Jesus, I love Thee
TTITLE11=He Laid His Hammer Down
EXTD=
EXTT0=
EXTT1=
EXTT2=
EXTT3=
EXTT4=
EXTT5=
EXTT6=
EXTT7=
EXTT8=
EXTT9=
EXTT10=
EXTT11=
PLAYORDER=
